<svg width="73" height="73" viewBox="0 0 73 73" fill="none" xmlns="http://www.w3.org/2000/svg">
<rect x="0.914062" y="0.5" width="72" height="72" rx="36" fill="#F3F3F3"/>
<path d="M37 36C34.8 36 33 35.3 31.6 33.9C30.2 32.5 29.5 30.7 29.5 28.5C29.5 26.3 30.2 24.5 31.6 23.1C33 21.7 34.8 21 37 21C39.2 21 41 21.7 42.4 23.1C43.8 24.5 44.5 26.3 44.5 28.5C44.5 30.7 43.8 32.5 42.4 33.9C41 35.3 39.2 36 37 36ZM21 52.05V47.35C21 46.0833 21.3167 45 21.95 44.1C22.5833 43.2 23.4 42.5167 24.4 42.05C26.6333 41.05 28.775 40.3 30.825 39.8C32.875 39.3 34.9333 39.05 37 39.05C39.0667 39.05 41.1167 39.3083 43.15 39.825C45.1833 40.3417 47.3167 41.0833 49.55 42.05C50.5833 42.5167 51.4167 43.2 52.05 44.1C52.6833 45 53 46.0833 53 47.35V52.05H21Z" fill="#D9D9D9"/>
</svg>
